<?xml version="1.0" standalone="no"?>
<!DOCTYPE svg PUBLIC "-//W3C//DTD SVG 20010904//EN"
 "http://www.w3.org/TR/2001/REC-SVG-20010904/DTD/svg10.dtd">
<svg version="1.0" xmlns="http://www.w3.org/2000/svg"
 width="1276.000000pt" height="1276.000000pt" viewBox="0 0 1276.000000 1276.000000"
 preserveAspectRatio="xMidYMid meet">

<g transform="translate(0.000000,1276.000000) scale(0.100000,-0.100000)"
fill="#000000" stroke="none">
<path d="M6090 12750 c-14 -4 -63 -8 -110 -9 -47 -1 -121 -5 -165 -11 -44 -5
-125 -14 -180 -20 -55 -6 -125 -15 -155 -20 -30 -5 -89 -14 -130 -21 -69 -10
-276 -50 -360 -69 -19 -4 -57 -13 -85 -19 -51 -11 -75 -17 -180 -46 -248 -67
-628 -196 -780 -265 -22 -10 -58 -25 -80 -34 -22 -9 -58 -24 -80 -34 -22 -9
-142 -67 -266 -129 -1070 -536 -1970 -1367 -2591 -2393 -106 -176 -146 -248
-256 -470 -92 -185 -109 -221 -148 -315 -9 -22 -27 -64 -40 -93 -13 -29 -24
-57 -24 -62 0 -6 -4 -18 -9 -28 -23 -42 -93 -242 -181 -517 -21 -68 -100 -375
-119 -470 -7 -33 -16 -78 -21 -100 -5 -22 -14 -69 -20 -105 -6 -36 -15 -85
-20 -110 -5 -25 -14 -85 -20 -135 -6 -49 -15 -117 -20 -150 -5 -33 -13 -125
-19 -205 -6 -80 -14 -174 -18 -210 -9 -83 -9 -561 0 -660 4 -41 12 -133 17
-205 27 -343 85 -686 176 -1040 52 -205 49 -194 130 -440 445 -1346 1327
-2497 2529 -3301 211 -141 422 -261 700 -398 492 -242 948 -402 1470 -516 84
-19 102 -22 153 -31 28 -5 78 -14 110 -20 57 -10 105 -17 257 -39 437 -62 958
-71 1435 -25 121 11 344 40 425 55 28 5 79 14 115 20 67 12 81 15 240 50 273
61 469 117 740 212 47 16 94 33 105 38 11 4 58 23 105 41 47 18 113 45 148 61
34 15 65 28 67 28 9 0 142 63 285 134 408 204 910 526 1109 711 52 48 73 78
108 151 69 146 86 224 87 394 1 166 -10 214 -77 344 -73 141 -204 245 -345
275 -71 15 -263 13 -337 -3 -72 -15 -115 -36 -175 -86 -77 -63 -251 -194 -335
-250 -44 -30 -121 -93 -170 -141 -95 -92 -161 -132 -233 -143 -49 -7 -107 -30
-262 -104 -58 -27 -139 -64 -180 -82 -41 -18 -88 -38 -105 -45 -143 -61 -391
-147 -534 -186 -181 -49 -315 -81 -416 -99 -33 -6 -80 -15 -105 -20 -80 -16
-254 -39 -430 -57 -41 -5 -241 -8 -445 -8 -351 0 -476 7 -670 35 -38 6 -99 15
-135 20 -59 8 -106 17 -270 51 -184 39 -459 117 -610 174 -169 64 -210 79
-247 96 -24 11 -45 19 -48 19 -20 0 -405 189 -491 241 -35 22 -66 39 -68 39
-25 0 -526 339 -576 390 -3 3 -22 18 -42 33 -209 155 -547 490 -774 767 -371
452 -677 1011 -869 1585 -59 178 -106 345 -131 460 -9 44 -20 98 -25 120 -68
308 -100 632 -100 1020 0 533 67 1008 207 1455 33 108 82 256 99 300 54 142
79 206 85 215 4 6 17 37 30 70 40 100 178 371 268 525 214 366 464 690 767
996 268 269 504 465 800 661 117 78 253 163 261 163 2 0 32 17 66 38 104 63
392 202 543 262 44 17 94 37 110 45 17 7 46 18 65 25 19 7 44 16 55 20 65 28
308 101 455 138 374 93 712 142 1080 158 180 7 259 27 410 101 100 50 126 68
201 142 71 70 94 101 127 171 67 140 78 272 32 405 -70 204 -242 359 -503 451
-40 15 -76 30 -81 35 -12 11 -271 10 -306 -1z"/>
</g>
</svg>
