<?xml version="1.0" standalone="no"?>
<!DOCTYPE svg PUBLIC "-//W3C//DTD SVG 20010904//EN"
 "http://www.w3.org/TR/2001/REC-SVG-20010904/DTD/svg10.dtd">
<svg version="1.0" xmlns="http://www.w3.org/2000/svg"
 width="1276.000000pt" height="1276.000000pt" viewBox="0 0 1276.000000 1276.000000"
 preserveAspectRatio="xMidYMid meet">

<g transform="translate(0.000000,1276.000000) scale(0.100000,-0.100000)"
fill="#000000" stroke="none">
<path d="M6090 12750 c-14 -4 -63 -8 -110 -9 -47 -1 -121 -5 -165 -11 -44 -5
-125 -14 -180 -20 -55 -6 -125 -15 -155 -20 -30 -5 -89 -14 -130 -21 -69 -10
-276 -50 -360 -69 -19 -4 -57 -13 -85 -19 -51 -11 -75 -17 -180 -46 -248 -67
-628 -196 -780 -265 -22 -10 -58 -25 -80 -34 -22 -9 -58 -24 -80 -34 -22 -9
-142 -67 -266 -129 -1070 -536 -1970 -1367 -2591 -2393 -106 -176 -146 -248
-256 -470 -92 -185 -109 -221 -148 -315 -9 -22 -27 -64 -40 -93 -13 -29 -24
-57 -24 -62 0 -6 -4 -18 -9 -28 -11 -20 -58 -141 -76 -197 -45 -136 -48 -161
-42 -333 7 -191 22 -266 73 -362 106 -202 277 -310 489 -310 161 0 314 66 454
196 125 116 202 244 312 522 17 42 41 100 53 127 12 28 29 66 36 85 31 79 178
364 258 500 214 366 464 690 767 996 268 269 504 465 800 661 117 78 253 163
261 163 2 0 32 17 66 38 104 63 392 202 543 262 44 17 94 37 110 45 17 7 46
18 65 25 19 7 44 16 55 20 65 28 308 101 455 138 374 93 712 142 1080 158 180
7 259 27 410 101 100 50 126 68 201 142 71 70 94 101 127 171 67 140 78 272
32 405 -70 204 -242 359 -503 451 -40 15 -76 30 -81 35 -12 11 -271 10 -306
-1z"/>
</g>
</svg>
